<svg width="246" height="280" viewBox="0 0 246 280" fill="none" xmlns="http://www.w3.org/2000/svg">
<path d="M123.625 267V245.72L181.305 155.84C185.598 149.12 189.518 142.867 193.065 137.08C196.798 131.293 199.785 125.227 202.025 118.88C204.451 112.347 205.665 104.88 205.665 96.48C205.665 86.0267 203.985 77.8133 200.625 71.84C197.265 65.8667 191.385 62.88 182.985 62.88C175.891 62.88 170.385 64.84 166.465 68.76C162.545 72.68 159.838 77.8133 158.345 84.16C156.851 90.5067 156.105 97.32 156.105 104.6V112.16H126.145V104.32C126.145 90.6933 127.918 79.0267 131.465 69.32C135.198 59.4267 141.078 51.7733 149.105 46.36C157.318 40.9467 168.145 38.24 181.585 38.24C199.878 38.24 213.505 43.4667 222.465 53.92C231.425 64.1867 235.905 78.4667 235.905 96.76C235.905 106.467 234.691 114.96 232.265 122.24C230.025 129.52 227.038 136.333 223.305 142.68C219.571 149.027 215.465 155.56 210.985 162.28L158.905 241.8H230.585V267H123.625Z" fill="#F2F2F2"/>
</svg>
