<svg width="113" height="229" fill="none" xmlns="http://www.w3.org/2000/svg"><path d="M.62 207.72l57.68-89.88c2.8-4.48 4.67-7.28 5.6-8.4 6.54-10.45 11.3-19.13 14.28-26.04 3-6.9 4.48-15.21 4.48-24.92 0-10.83-1.77-19.13-5.32-24.92-3.54-5.79-9.33-8.68-17.36-8.68-17.92 0-26.88 13.9-26.88 41.72v7.56H3.14v-7.84c0-21.28 4.4-37.61 13.16-49C25.08 5.93 39.17.24 58.58.24c17.92 0 31.46 5.13 40.6 15.4 9.15 10.08 13.72 24.45 13.72 43.12 0 9.15-1.12 17.36-3.36 24.64a84.75 84.75 0 01-7.56 18.48 478.02 478.02 0 01-14 22.4L35.9 203.8h71.69V229H.61v-21.28z" fill="#F2F2F2"/></svg>