<svg width="247" height="280" viewBox="0 0 247 280" fill="none" xmlns="http://www.w3.org/2000/svg">
<path d="M179.921 269.52C167.601 269.52 157.335 267.187 149.121 262.52C140.908 257.853 134.748 251.133 130.641 242.36C126.535 233.587 124.481 223.227 124.481 211.28V203.72H154.161C154.161 204.467 154.161 205.307 154.161 206.24C154.161 206.987 154.161 207.827 154.161 208.76C154.348 215.48 155.095 221.547 156.401 226.96C157.895 232.373 160.415 236.667 163.961 239.84C167.695 243.013 173.015 244.6 179.921 244.6C187.201 244.6 192.708 242.92 196.441 239.56C200.175 236.013 202.695 231.067 204.001 224.72C205.308 218.373 205.961 211.093 205.961 202.88C205.961 190.933 203.721 181.227 199.241 173.76C194.948 166.107 187.295 161.907 176.281 161.16C175.721 160.973 174.975 160.88 174.041 160.88C173.295 160.88 172.641 160.88 172.081 160.88V130.92C172.641 130.92 173.295 130.92 174.041 130.92C174.788 130.92 175.441 130.92 176.001 130.92C186.641 130.547 194.295 127.747 198.961 122.52C203.628 117.293 205.961 108.613 205.961 96.48C205.961 86.2133 204.188 78 200.641 71.84C197.281 65.68 190.468 62.6 180.201 62.6C169.935 62.6 163.121 66.0533 159.761 72.96C156.401 79.68 154.535 88.36 154.161 99C154.161 99.7467 154.161 100.587 154.161 101.52C154.161 102.267 154.161 103.013 154.161 103.76H124.481V96.2C124.481 84.0667 126.535 73.7067 130.641 65.12C134.748 56.5333 140.908 49.9067 149.121 45.24C157.521 40.5733 167.881 38.24 180.201 38.24C192.708 38.24 203.068 40.5733 211.281 45.24C219.495 49.9067 225.655 56.6267 229.761 65.4C233.868 73.9867 235.921 84.3467 235.921 96.48C235.921 110.107 232.935 121.027 226.961 129.24C221.175 137.453 213.335 143.053 203.441 146.04C210.348 148.093 216.135 151.64 220.801 156.68C225.655 161.72 229.388 168.16 232.001 176C234.615 183.653 235.921 192.613 235.921 202.88C235.921 216.32 234.055 228.08 230.321 238.16C226.588 248.053 220.615 255.8 212.401 261.4C204.188 266.813 193.361 269.52 179.921 269.52Z" fill="#F2F2F2"/>
</svg>
