<?xml version="1.0" encoding="UTF-8"?>
<!DOCTYPE svg PUBLIC "-//W3C//DTD SVG 1.1//EN" "http://www.w3.org/Graphics/SVG/1.1/DTD/svg11.dtd">
<svg xmlns="http://www.w3.org/2000/svg" xmlns:xlink="http://www.w3.org/1999/xlink">
  <defs>
    <clipPath id="clip0">
      <path fill="#fff" transform="translate(.62)" d="M0 0h19.15v20H0z"/>
    </clipPath>
  </defs>
  <symbol id="footer-logo">
    <path d="M1.6 22.05A9.5 9.5 0 010 16.31V7.79a9.63 9.63 0 011.5-5.84C2.6.62 4.3 0 6.81 0c2.5 0 4.1.62 5.1 1.74a7.49 7.49 0 011.51 5.03v2.05h-4.9V6.46c.03-.7-.07-1.4-.3-2.05a1.46 1.46 0 00-.59-.63 1.41 1.41 0 00-.82-.19c-.7 0-1.2.2-1.4.72-.23.73-.33 1.49-.3 2.25v10.98c-.05.74.08 1.48.4 2.15.2.52.7.72 1.4.72s1.1-.2 1.3-.72c.23-.7.33-1.42.3-2.15v-2.46h4.91v2.05a7.98 7.98 0 01-1.5 5.13c-1 1.23-2.7 1.84-5.1 1.84-2.41-.1-4.22-.72-5.22-2.05zM19.33.3h5.7l4.22 23.4h-4.61l-.8-4.93h-3.3l-.8 4.92h-4.72L19.33.31zm4.1 15.4l-1.2-9.14-1.2 9.13h2.4zM32.75 4.2h-3.4V.3h11.91v3.8h-3.4v19.6h-5.1V4.2zM50.38.3h8.81v2.47h-5.7v7.7h4.6v2.35h-4.6v8.62h5.7v2.35h-8.91V.31h.1zM61.8.3H64l6.51 15.5V.3h2.6v23.4h-2l-6.6-16v16H61.8V.3zM76.12.3h8.81v2.47h-5.7v7.7h4.6v2.35h-4.6v8.62h5.7v2.35h-8.81V.31zM87.54.3h4.6a7.87 7.87 0 015.11 1.44c1.1.93 1.6 2.57 1.6 4.72 0 2.98-.9 4.82-2.8 5.44l3.2 11.69h-3.1l-3-10.97h-2.5v10.97h-3.21V.31h.1zm4.4 10.06a4.3 4.3 0 002.9-.82c.6-.51.91-1.54.91-3.08a6.77 6.77 0 00-.3-2.25 2.58 2.58 0 00-1.1-1.24 4.47 4.47 0 00-2.2-.4h-1.4v7.69h1.2v.1zM102.86 21.95a10.57 10.57 0 01-1.4-5.95V8.2c-.03-1.48.14-2.96.5-4.4a5.2 5.2 0 011.9-2.67c1.12-.68 2.41-1 3.7-.92 2.11 0 3.61.5 4.52 1.64a7.98 7.98 0 011.4 5.12v.82h-3v-.71c0-.86-.07-1.72-.2-2.57a2.06 2.06 0 00-.8-1.33 3.04 3.04 0 00-1.91-.51 2.96 2.96 0 00-2 .61 2.3 2.3 0 00-.8 1.64c-.14.92-.2 1.85-.2 2.77v8.72a9.53 9.53 0 00.6 3.9c.4.82 1.2 1.13 2.4 1.13a2.37 2.37 0 002.4-1.23c.53-1.3.77-2.7.7-4.1v-1.65h-2.9V12.1h5.8v11.6h-2l-.3-2.67c-.26.89-.8 1.67-1.55 2.2-.74.55-1.64.81-2.55.77a4.9 4.9 0 01-4.3-2.05zM119.99 15.49L115.08.4h3l3.51 11.28 3.4-11.28H128l-4.9 15.08v8.2h-3.01v-8.2h-.1z"/>
  </symbol>
  <symbol id="icon-htmlacademy">
    <path d="M13.64.02L13.5 0 0 1.4v24.61L13.5 34 27 26.01V1.41L13.64 0zm11.6 25L13.5 31.96 1.77 25.02v-10.1l11.68 6.93.02 1.25-8.02-4.75v1.23l8.04 4.8.02 1.3-8.05-4.76v1.22l8.04 4.81 8.12-4.83V16.9l3.62-2.15v10.26zm0-11.57L22 15.33l-1.48.88-7.06-4.19-.01 1.23 6.04 3.57-.06.03-.13.07-.86.5-4.98-2.95-.01 1.22 3.93 2.33-.93.61-.02.01-2.97-1.74-.01 1.23 1.94 1.13-1.98 1.19L1.8 13.58l11.63-6.96 11.8 6.83zm0-1.22L13.43 5.3 1.77 12.22V2.99L13.5 1.76 25.23 3v9.24z"/>
  </symbol>
  <symbol id="icon-mobile-gift">
    <path d="M64.02 34.71H14.03a3.17 3.17 0 01-3.18-3.16v-9.47a3.17 3.17 0 013.18-3.16h49.98a3.17 3.17 0 013.19 3.16v9.47a3.17 3.17 0 01-3.18 3.16zM14.03 21.35c-.4 0-.74.33-.74.73v9.47c0 .41.33.74.74.74h49.98c.41 0 .75-.33.75-.74v-9.47c0-.4-.34-.73-.75-.73H14.03z"/>
    <path d="M57.04 67.15H21a6.11 6.11 0 01-6.13-6.09V33.5c0-.67.55-1.2 1.22-1.2.68 0 1.22.53 1.22 1.2v27.56A3.68 3.68 0 0021 64.73h36.04a3.68 3.68 0 003.7-3.67V33.5a1.22 1.22 0 012.44 0v27.56a6.11 6.11 0 01-6.14 6.09z"/>
    <path d="M39.02 67.15c-.67 0-1.22-.54-1.22-1.21V33.5c0-.67.55-1.2 1.22-1.2.68 0 1.22.53 1.22 1.2v32.44c0 .67-.54 1.2-1.22 1.2zM23.81 21.34a7.8 7.8 0 01-3.17-10.6A7.9 7.9 0 0131.3 7.6c5.82 3.13 8.96 11.86 9.09 12.23l-2.3.8c-.03-.08-2.96-8.22-7.95-10.9a5.46 5.46 0 00-7.36 2.17 5.39 5.39 0 002.2 7.32l-1.17 2.13z"/>
    <path d="M54.23 21.34l-1.16-2.13a5.38 5.38 0 00-1.03-9.92 5.43 5.43 0 00-4.14.43c-4.98 2.68-7.91 10.82-7.94 10.9l-2.3-.8c.13-.37 3.27-9.1 9.08-12.23a7.86 7.86 0 0111.29 9.1c-.6 2-1.95 3.66-3.8 4.65zM61.95 50.93H16.09c-.67 0-1.22-.54-1.22-1.2 0-.68.55-1.22 1.22-1.22h45.86c.67 0 1.22.54 1.22 1.21 0 .67-.55 1.21-1.22 1.21z"/>
  </symbol>
  <symbol id="icon-mobile-product-plus">
    <path stroke-width="2" d="M15 0v30M30 15H0"/>
  </symbol>
  <symbol id="icon-phone">
    <g clip-path="url(#clip0)">
      <path d="M17.7561 9.4H9.61816V10.6H17.7561L15.7455 12.7L16.6072 13.6L19.5752 10.5C19.6684 10.3702 19.7188 10.2123 19.7188 10.05C19.7188 9.88772 19.6684 9.72982 19.5752 9.6L16.6072 6.5L15.7455 7.4L17.7561 9.4Z"/>
      <path d="M8.37362 19.4V13.2C8.36256 13.0447 8.29849 12.8987 8.19306 12.7886C8.08763 12.6785 7.94786 12.6116 7.79917 12.6H3.5866C3.59153 12.9167 3.71415 13.2189 3.92855 13.4428C4.14295 13.6668 4.43232 13.7949 4.73548 13.8H7.12899V18.8H3.5866C3.35992 18.8149 3.13268 18.7825 2.91809 18.7048C2.70349 18.6271 2.50582 18.5057 2.33656 18.3475C2.1673 18.1893 2.02983 17.9976 1.93215 17.7834C1.83446 17.5693 1.7785 17.337 1.76753 17.1V3.10001C1.75968 2.6373 1.92564 2.18977 2.22987 1.85331C2.5341 1.51686 2.95238 1.31824 3.39512 1.30001H7.12899V6.30001H4.83122C4.52806 6.30516 4.23869 6.43324 4.02429 6.65718C3.80989 6.88112 3.68727 7.18336 3.68234 7.50001H7.89491C8.0436 7.48846 8.18337 7.42154 8.2888 7.31142C8.39423 7.2013 8.4583 7.05531 8.46936 6.90001V0.600012C8.42369 0.443872 8.33642 0.304534 8.21775 0.198285C8.09907 0.0920352 7.95389 0.0232649 7.79917 1.23734e-05H3.5866C3.20936 -0.0133408 2.8333 0.0511002 2.47993 0.189651C2.12655 0.328202 1.80279 0.538145 1.52714 0.807477C1.2515 1.07681 1.02939 1.40025 0.8735 1.7593C0.717613 2.11835 0.631012 2.50598 0.618647 2.90001V16.8C0.590902 17.1977 0.642233 17.597 0.769411 17.9729C0.89659 18.3489 1.09686 18.6932 1.35764 18.9844C1.61841 19.2756 1.93405 19.5072 2.28469 19.6648C2.63534 19.8224 3.0134 19.9024 3.39512 19.9H7.79917C7.86953 19.915 7.94222 19.9133 8.01186 19.895C8.0815 19.8767 8.1463 19.8423 8.20147 19.7942C8.25664 19.7462 8.30075 19.6859 8.33055 19.6176C8.36035 19.5494 8.37507 19.475 8.37362 19.4Z"/>
    </g>
    <defs>
      <clipPath id="clip0">
        <rect width="19.1481" height="20" fill="white" transform="translate(0.618652)"/>
      </clipPath>
    </defs>
  </symbol>
  <symbol id="icon-catalog-gift">
    <path d="M65.657 35.829H14.391a3.266 3.266 0 01-3.263-3.262v-9.773a3.267 3.267 0 013.263-3.262h51.265a3.266 3.266 0 013.262 3.262v9.774a3.264 3.264 0 01-3.261 3.26zM14.391 22.032a.773.773 0 00-.763.762v9.774c0 .42.342.762.763.762h51.265c.42 0 .762-.342.762-.762v-9.773a.772.772 0 00-.762-.763H14.391z"/><path d="M58.507 69.308h-36.97a6.289 6.289 0 01-6.281-6.282V34.579a1.25 1.25 0 012.5 0v28.447a3.786 3.786 0 003.781 3.782h36.97a3.786 3.786 0 003.781-3.782V34.579a1.25 1.25 0 012.5 0v28.447a6.288 6.288 0 01-6.28 6.282z"/><path d="M40.023 69.308c-.69 0-1.25-.56-1.25-1.25v-33.48a1.25 1.25 0 012.5 0v33.479c0 .691-.56 1.25-1.25 1.25zM24.422 22.028c-3.913-2.12-5.373-7.028-3.255-10.941 2.117-3.911 7.024-5.372 10.939-3.256 5.963 3.23 9.183 12.242 9.316 12.623l-2.358.83c-.03-.085-3.038-8.486-8.148-11.254a5.578 5.578 0 00-7.55 2.247 5.579 5.579 0 002.248 7.552l-1.192 2.199z"/><path d="M55.622 22.027l-1.19-2.198a5.541 5.541 0 002.689-3.31 5.53 5.53 0 00-.442-4.241A5.527 5.527 0 0053.37 9.59a5.533 5.533 0 00-4.24.44c-5.11 2.768-8.118 11.168-8.148 11.253l-2.359-.83c.134-.381 3.353-9.392 9.317-12.622a8.015 8.015 0 016.143-.637 8.01 8.01 0 014.794 3.893 8.013 8.013 0 01.639 6.144 8.027 8.027 0 01-3.895 4.796zM63.538 52.569H16.506a1.25 1.25 0 010-2.5h47.032a1.25 1.25 0 010 2.5z"/>
  </symbol>
  <symbol id="icon-catalog-plus">
    <line x1="15" x2="15" y2="30" stroke="#D3D3D3"/>
    <line x1="30" y1="15" y2="15" stroke="#D3D3D3"/>
  </symbol>
  <symbol id="icon_email">
    <line x1="1.18955" y1="6" x2="1.18955" y2="14" stroke-width="1.3"/>
    <line x1="18.1896" y1="6" x2="18.1896" y2="14" stroke-width="1.3"/>
    <line x1="0.539551" y1="13.35" x2="18.5396" y2="13.35" stroke-width="1.3"/>
    <line x1="0.539551" y1="1.35" x2="18.5396" y2="1.35" stroke-width="1.3"/>
    <path d="M17.8896 3.1821L9.53957 9.67654L1.18955 3.18209V1.65H4.03955L9.53957 1.65H14.5396H17.8896V3.1821Z" stroke-width="1.3"/>
  </symbol>
  <symbol id="icon_facebook">
    <path d="M16.5 1.83h-2.75c-1.22 0-2.38.48-3.24 1.32a4.45 4.45 0 00-1.34 3.18v2.7H6.42v3.59h2.75v7.19h3.66v-7.2h2.75l.92-3.59h-3.67v-2.7c0-.23.1-.46.27-.63.17-.17.4-.26.65-.26h2.75v-3.6z" stroke-width="1.1" stroke-linecap="round" stroke-linejoin="round"/>
  </symbol>
  <symbol id="icon_instagram">
    <path d="M7.98.06c1.34 0 2.43.02 3.27.05a6 6 0 011.92.37 3.99 3.99 0 012.31 2.32 6 6 0 01.38 1.92 91.88 91.88 0 010 6.53 6 6 0 01-.38 1.92 3.99 3.99 0 01-2.3 2.31 6 6 0 01-1.93.38 91.88 91.88 0 01-6.53 0 6 6 0 01-1.92-.38 3.99 3.99 0 01-2.32-2.3 6 6 0 01-.37-1.93 91.73 91.73 0 010-6.53A6 6 0 01.48 2.8 3.99 3.99 0 012.8.48 6 6 0 014.72.11C5.56.08 6.65.06 7.98.06zm0 1.03c-1.38 0-2.51.02-3.39.05-.56.02-1.08.12-1.56.3-.75.31-1.28.84-1.6 1.6-.17.47-.27 1-.29 1.55a98.83 98.83 0 000 6.79c.02.56.12 1.08.3 1.56.31.75.84 1.28 1.6 1.6.47.17 1 .27 1.55.29a98.66 98.66 0 006.79 0 5.01 5.01 0 001.56-.3 2.85 2.85 0 001.6-1.6c.17-.47.27-1 .29-1.55a98.66 98.66 0 000-6.79 5.01 5.01 0 00-.3-1.56 2.85 2.85 0 00-1.6-1.6c-.47-.17-1-.27-1.55-.29-.88-.03-2.01-.05-3.4-.05zm0 10.07c.88 0 1.63-.31 2.25-.93.62-.62.93-1.37.93-2.25 0-.87-.31-1.62-.93-2.24a3.06 3.06 0 00-2.25-.93c-.87 0-1.62.31-2.24.93a3.06 3.06 0 00-.93 2.24c0 .88.31 1.63.93 2.25.62.62 1.37.93 2.24.93zm0-7.24c1.13 0 2.09.4 2.88 1.19.8.8 1.19 1.75 1.19 2.87 0 1.13-.4 2.09-1.2 2.88-.78.8-1.74 1.19-2.87 1.19-1.12 0-2.08-.4-2.87-1.2a3.92 3.92 0 01-1.19-2.87c0-1.12.4-2.08 1.19-2.87.8-.8 1.75-1.19 2.87-1.19zm5.2-.15a.95.95 0 01-.97.94.9.9 0 01-.67-.28.9.9 0 01-.27-.66.95.95 0 01.93-.97c.26 0 .49.1.68.29.2.19.3.42.3.68z"/>
  </symbol>
  <symbol id="icon_vkontakte">
    <path d="M.07 4c0-.63.42-.96 1.27-1.01L4.6 3c.22 0 .37.09.44.27.33.91.7 1.7 1.13 2.37.41.66.95 1.43 1.63 2.3a.3.3 0 00.28.16c.1 0 .18-.04.24-.13l.07-.2.02-3.17c0-.21-.06-.36-.19-.43A1.9 1.9 0 007.53 4c-.26-.04-.4-.17-.4-.4 0-.05.02-.09.03-.11.3-.8 1.18-1.19 2.63-1.19L11 2.29c.56 0 1.02.12 1.38.35.37.23.55.6.55 1.1v4.15c.1.06.2.09.28.09.22 0 .41-.11.57-.33 1.6-1.88 2.48-3.13 2.6-3.77a1.29 1.29 0 01.55-.57c.24-.13.44-.22.62-.27a.5.5 0 01.2-.03h3.39l.21.01c.3 0 .52.12.68.35.06.07.1.15.12.24a1.57 1.57 0 01.06.4v.13c-.1.5-.36 1.03-.78 1.6-.41.57-.94 1.18-1.59 1.84-.64.66-1.04 1.09-1.2 1.3-.13.14-.2.28-.2.4 0 .1.06.2.18.33l3.2 3.36c.17.2.26.41.26.64 0 .28-.13.52-.4.7-.26.18-.57.28-.94.3l-.37.03h-3.33a.8.8 0 00-.08 0 .8.8 0 01-.1.02c-.31 0-.61-.12-.89-.35a182 182 0 01-2.06-2.16 1.1 1.1 0 00-.3-.24 25.63 25.63 0 00-.44 1.63l-.07.31c-.14.43-.45.68-.92.77l-.3.02H9.74a5.92 5.92 0 01-3.62-1.4 14.5 14.5 0 01-3.25-3.59A32.9 32.9 0 01.18 4.52C.11 4.36.07 4.2.07 4zm13.15 4.73c-.3 0-.58-.07-.83-.21-.25-.14-.37-.33-.37-.58v-4.2c0-.25-.07-.42-.22-.52-.15-.1-.4-.16-.77-.16L9.8 3.1c-.63 0-1.1.09-1.43.27.65.26.97.67.97 1.24v3.22c-.03.3-.18.56-.44.76-.26.2-.55.3-.88.3-.43 0-.77-.17-1-.53a18.47 18.47 0 01-2.54-4.1l-.2-.47-2.9-.02c-.2 0-.3.01-.33.03-.02.02-.03.07-.03.16 0 .1.02.22.04.34l.46 1.03a23.46 23.46 0 004 6.25c1.44 1.53 2.85 2.29 4.23 2.29h2.2c.08 0 .15-.02.19-.07a.52.52 0 00.1-.24l.05-.18.42-1.61c.11-.22.22-.37.3-.44.16-.14.35-.2.57-.2.35 0 .71.17 1.08.53l1.86 1.97c.11.16.24.24.37.24h3.6c.45 0 .67-.1.67-.28a.31.31 0 00-.07-.18l-3.17-3.3a1.17 1.17 0 01-.38-.83c0-.3.12-.57.35-.84.2-.25.56-.65 1.11-1.22a28.2 28.2 0 001.43-1.59c.41-.5.68-.94.81-1.34l.07-.24a.24.24 0 01-.02-.12l-.02-.14h-3.44c-.22.07-.4.18-.53.33l-.13.35c-.36.84-1.32 2.14-2.86 3.9-.31.24-.67.36-1.08.36z"/>
  </symbol>
</svg>
